<svg width="145" height="43" viewBox="0 0 145 43" fill="none" xmlns="http://www.w3.org/2000/svg">
<path d="M8.5591 43C9.59829 43 10.6044 42.8728 11.5775 42.6183C12.56 42.3639 13.4385 41.9823 14.2132 41.4734C14.9879 40.9554 15.6019 40.3057 16.0554 39.5242C16.5183 38.7337 16.7498 37.8113 16.7498 36.7572C16.7498 35.7668 16.5561 34.9489 16.1688 34.3037C15.7909 33.6586 15.3044 33.1406 14.7092 32.7499C14.1235 32.35 13.5094 32.0411 12.867 31.823C12.2246 31.5958 11.6389 31.4141 11.1098 31.2778L7.56716 30.3509C7.13259 30.2419 6.70747 30.1056 6.29179 29.942C5.87612 29.7784 5.5313 29.5649 5.25733 29.3014C4.98336 29.0288 4.84638 28.6789 4.84638 28.2518C4.84638 27.7884 5.01171 27.3885 5.34235 27.0523C5.68245 26.7161 6.11702 26.4617 6.64606 26.289C7.18455 26.1073 7.7561 26.0255 8.36071 26.0437C9.28653 26.0709 10.1368 26.3345 10.9114 26.8342C11.6861 27.334 12.1868 28.061 12.4135 29.0151L16.5797 28.3336C16.0885 26.4889 15.1343 25.0759 13.7172 24.0945C12.3002 23.1131 10.5336 22.6088 8.4174 22.5815C7.01922 22.5724 5.74386 22.7814 4.59131 23.2085C3.43876 23.6356 2.51766 24.2853 1.82802 25.1577C1.13838 26.03 0.793559 27.125 0.793559 28.4426C0.793559 29.3786 0.954161 30.1555 1.27536 30.7735C1.60601 31.3823 2.01696 31.873 2.50821 32.2455C2.99947 32.6181 3.50489 32.9044 4.02448 33.1043C4.55352 33.3042 5.01643 33.4587 5.41321 33.5677L10.7131 35.0671C11.5066 35.2942 12.0357 35.5805 12.3002 35.9258C12.5647 36.262 12.6969 36.63 12.6969 37.0298C12.6969 37.5751 12.5033 38.034 12.116 38.4065C11.7381 38.7791 11.2515 39.0608 10.6564 39.2516C10.0612 39.4424 9.44713 39.5379 8.81418 39.5379C7.68052 39.5379 6.66968 39.2334 5.78165 38.6246C4.89362 38.0158 4.30789 37.148 4.02448 36.0212L0 36.5937C0.207837 37.9204 0.699088 39.0653 1.47375 40.0286C2.25787 40.9827 3.25454 41.7187 4.46377 42.2367C5.68245 42.7456 7.04756 43 8.5591 43Z" fill="white"/>
<path d="M26.9781 43C28.4519 43 29.8076 42.6274 31.0451 41.8823C32.2922 41.1372 33.2038 40.0922 33.7801 38.7473L29.9256 37.6841C29.3399 38.9199 28.2818 39.5379 26.7514 39.5379C25.7028 39.5379 24.8762 39.2562 24.2715 38.6928C23.6764 38.1294 23.3079 37.3206 23.1662 36.2665H33.9076C34.0682 34.4855 33.8793 32.9362 33.3408 31.6185C32.8023 30.3009 31.971 29.2786 30.8467 28.5517C29.7225 27.8247 28.3574 27.4612 26.7514 27.4612C25.2399 27.4612 23.9031 27.7929 22.7411 28.4563C21.5791 29.1105 20.6675 30.0329 20.0062 31.2233C19.3449 32.4137 19.0142 33.813 19.0142 35.4214C19.0142 36.8935 19.3496 38.2021 20.0203 39.347C20.7005 40.4829 21.6358 41.378 22.8261 42.0322C24.0259 42.6774 25.4099 43 26.9781 43ZM26.9215 30.678C27.8473 30.678 28.5558 30.9007 29.0471 31.3459C29.5478 31.7912 29.869 32.5136 30.0107 33.5132H23.2654C23.6716 31.6231 24.8903 30.678 26.9215 30.678Z" fill="white"/>
<path d="M49.2196 42.5911H53.7542L56.9284 38.0658L60.0743 42.5911H64.609L59.1107 35.1488L64.4672 27.8702H59.9326L56.9284 32.2319L53.8676 27.8702H49.3329L54.6895 35.1488L49.2196 42.5911Z" fill="white"/>
<path d="M71.0199 42.5911H74.931V34.6036L81.903 22.9632H77.3967L72.9754 30.3509L68.5542 22.9632H64.0479L71.0199 34.6036V42.5911Z" fill="white"/>
<path fill-rule="evenodd" clip-rule="evenodd" d="M36.8431 18.6391C39.9787 11.315 48.7771 7.54122 56.5369 10.192L58.0272 10.7011L58.6293 9.29451C61.7649 1.97048 70.5633 -1.80333 78.3232 0.847444C86.1525 3.52198 89.9516 11.7167 86.7878 19.1064C85.4058 18.5589 83.2489 17.7046 83.2489 17.7046C85.5794 12.2609 82.8099 6.2868 77.0423 4.31658C71.2051 2.3226 64.527 5.18698 62.1683 10.6963L60.1791 15.3428L55.256 13.6611C49.4189 11.6671 42.7408 14.5315 40.3821 20.0409C38.0515 25.4845 40.8211 31.4586 46.5887 33.4289L45.3078 36.898C37.4784 34.2235 33.6794 26.0288 36.8431 18.6391Z" fill="white"/>
<path d="M91.1365 43C91.9773 43 92.7425 42.891 93.4322 42.6729C94.1218 42.4548 94.7359 42.1458 95.2744 41.746V42.5911H98.6753V22.9632H94.7926V28.3609C94.3202 28.0701 93.7912 27.8474 93.2054 27.693C92.6292 27.5385 92.0056 27.4612 91.3349 27.4612C89.8706 27.4612 88.5952 27.7975 87.5088 28.4699C86.4224 29.1423 85.5769 30.0647 84.9723 31.2369C84.3771 32.4 84.0795 33.7313 84.0795 35.2306C84.0795 36.7027 84.3724 38.0249 84.9581 39.1971C85.5533 40.3693 86.3799 41.2962 87.438 41.9777C88.496 42.6592 89.7289 43 91.1365 43ZM91.76 39.7014C90.9287 39.7014 90.2485 39.5015 89.7194 39.1017C89.1904 38.7019 88.7983 38.1657 88.5433 37.4933C88.2882 36.8118 88.1607 36.0575 88.1607 35.2306C88.1607 34.4128 88.2929 33.6677 88.5574 32.9952C88.822 32.3137 89.2282 31.773 89.7761 31.3732C90.3335 30.9643 91.042 30.7598 91.9017 30.7598C93.111 30.7598 93.9754 31.1733 94.495 32.0002C95.0146 32.818 95.2744 33.8948 95.2744 35.2306C95.2744 36.5664 95.0098 37.6478 94.4808 38.4747C93.9612 39.2925 93.0543 39.7014 91.76 39.7014Z" fill="white"/>
<path d="M106.894 43C108.075 43 109.067 42.8273 109.87 42.482C110.683 42.1276 111.429 41.5643 112.109 40.7919V42.5911H115.482V33.595C115.482 32.9225 115.453 32.3137 115.397 31.7685C115.34 31.2233 115.161 30.678 114.858 30.1328C114.32 29.1514 113.526 28.4608 112.478 28.061C111.429 27.6612 110.229 27.4612 108.878 27.4612C107.036 27.4612 105.581 27.8429 104.514 28.6062C103.446 29.3695 102.719 30.36 102.331 31.5776L105.817 32.6408C106.063 31.9684 106.493 31.5004 107.107 31.2369C107.721 30.9734 108.311 30.8416 108.878 30.8416C109.785 30.8416 110.461 31.0052 110.905 31.3323C111.349 31.6503 111.608 32.1547 111.684 32.8453C110.248 33.0452 108.982 33.2406 107.886 33.4314C106.79 33.6131 105.874 33.8312 105.137 34.0857C103.909 34.5218 103.045 35.117 102.544 35.8713C102.043 36.6164 101.793 37.5024 101.793 38.5292C101.793 39.347 101.987 40.0967 102.374 40.7782C102.771 41.4507 103.347 41.9913 104.103 42.4003C104.868 42.8001 105.798 43 106.894 43ZM107.716 40.0831C107.055 40.0831 106.531 39.9422 106.143 39.6605C105.756 39.3697 105.562 38.9745 105.562 38.4747C105.562 38.1021 105.685 37.7841 105.931 37.5205C106.176 37.2479 106.583 37.0026 107.149 36.7845C107.584 36.63 108.118 36.4892 108.751 36.362C109.393 36.2256 110.361 36.053 111.656 35.844C111.646 36.1984 111.618 36.5891 111.571 37.0162C111.523 37.4342 111.42 37.8022 111.259 38.1203C111.155 38.3293 110.957 38.5883 110.664 38.8972C110.38 39.2062 109.993 39.4833 109.502 39.7287C109.02 39.9649 108.425 40.0831 107.716 40.0831Z" fill="white"/>
<path d="M128.349 42.5911V39.5106C127.442 39.6287 126.615 39.6651 125.869 39.6196C125.123 39.5742 124.58 39.2925 124.239 38.7745C124.06 38.5019 123.961 38.1385 123.942 37.6841C123.932 37.2207 123.928 36.7027 123.928 36.1302V30.7326H128.349V27.8702H123.928V23.781H120.073V27.8702H117.466V30.7326H120.073V36.3483C120.073 37.2298 120.083 38.0203 120.102 38.72C120.121 39.4106 120.319 40.0922 120.697 40.7646C121.112 41.4825 121.717 42.005 122.511 42.3321C123.314 42.6502 124.221 42.8183 125.231 42.8364C126.252 42.8637 127.291 42.7819 128.349 42.5911Z" fill="white"/>
<path d="M138.015 43C139.489 43 140.845 42.6274 142.082 41.8823C143.329 41.1372 144.241 40.0922 144.817 38.7473L140.963 37.6841C140.377 38.9199 139.319 39.5379 137.788 39.5379C136.74 39.5379 135.913 39.2562 135.309 38.6928C134.713 38.1294 134.345 37.3206 134.203 36.2665H144.945C145.105 34.4855 144.916 32.9362 144.378 31.6185C143.839 30.3009 143.008 29.2786 141.884 28.5517C140.76 27.8247 139.394 27.4612 137.788 27.4612C136.277 27.4612 134.94 27.7929 133.778 28.4563C132.616 29.1105 131.704 30.0329 131.043 31.2233C130.382 32.4137 130.051 33.813 130.051 35.4214C130.051 36.8935 130.387 38.2021 131.057 39.347C131.738 40.4829 132.673 41.378 133.863 42.0322C135.063 42.6774 136.447 43 138.015 43ZM137.958 30.678C138.884 30.678 139.593 30.9007 140.084 31.3459C140.585 31.7912 140.906 32.5136 141.048 33.5132H134.302C134.709 31.6231 135.927 30.678 137.958 30.678Z" fill="white"/>
</svg>
