<svg width="63" height="51" viewBox="0 0 63 51" fill="none" xmlns="http://www.w3.org/2000/svg">
<path d="M31.5 19.2C26.2805 19.2 22.05 23.4324 22.05 28.65C22.05 33.8696 26.2805 38.1 31.5 38.1C36.7183 38.1 40.95 33.8696 40.95 28.65C40.95 23.4324 36.7183 19.2 31.5 19.2ZM56.7 9.75005H49.14C48.1005 9.75005 46.9804 8.94365 46.6521 7.95707L44.6979 2.0924C44.3684 1.10645 43.2495 0.300049 42.21 0.300049H20.79C19.7505 0.300049 18.6304 1.10645 18.3021 2.09303L16.3479 7.9577C16.0184 8.94365 14.8995 9.75005 13.86 9.75005H6.3C2.835 9.75005 0 12.585 0 16.05V44.4C0 47.865 2.835 50.7001 6.3 50.7001H56.7C60.165 50.7001 63 47.865 63 44.4V16.05C63 12.585 60.165 9.75005 56.7 9.75005ZM31.5 44.4C22.8016 44.4 15.75 37.3485 15.75 28.65C15.75 19.9523 22.8016 12.9 31.5 12.9C40.1972 12.9 47.25 19.9523 47.25 28.65C47.25 37.3485 40.1972 44.4 31.5 44.4ZM54.495 20.4556C53.2778 20.4556 52.29 19.4691 52.29 18.2506C52.29 17.0335 53.2778 16.0456 54.495 16.0456C55.7134 16.0456 56.7 17.0335 56.7 18.2506C56.7 19.4691 55.7128 20.4556 54.495 20.4556Z" fill="#CFCFCF"/>
</svg>
