<svg width="195" height="47" viewBox="0 0 195 47" fill="none" xmlns="http://www.w3.org/2000/svg">
<g filter="url(#filter0_d)">
<rect x="4" width="187" height="39" rx="19.5" fill="#FFC439"/>
<path d="M55.0859 25H52.1797V17.2891L50.0625 22.2656H48.0703L45.9531 17.2891V25H43.2031V13.3672H46.5703L49.1484 19.1094L51.7188 13.3672H55.0859V25ZM63.1797 22.7109V20.8828C62.7161 20.9297 62.3411 20.9714 62.0547 21.0078C61.7682 21.0391 61.487 21.1042 61.2109 21.2031C60.9714 21.2865 60.7839 21.4141 60.6484 21.5859C60.5182 21.7526 60.4531 21.9766 60.4531 22.2578C60.4531 22.6693 60.5625 22.9531 60.7812 23.1094C61.0052 23.2604 61.3333 23.3359 61.7656 23.3359C62.0052 23.3359 62.25 23.2812 62.5 23.1719C62.75 23.0625 62.9766 22.9089 63.1797 22.7109ZM63.1797 24.0703C62.9922 24.2266 62.8229 24.3672 62.6719 24.4922C62.526 24.6172 62.3281 24.7422 62.0781 24.8672C61.8333 24.987 61.5938 25.0781 61.3594 25.1406C61.1302 25.2031 60.8073 25.2344 60.3906 25.2344C59.6146 25.2344 58.9688 24.974 58.4531 24.4531C57.9427 23.9323 57.6875 23.276 57.6875 22.4844C57.6875 21.8333 57.8177 21.3073 58.0781 20.9062C58.3385 20.5052 58.7135 20.1875 59.2031 19.9531C59.6979 19.7135 60.2891 19.5469 60.9766 19.4531C61.6641 19.3594 62.4036 19.2865 63.1953 19.2344V19.1875C63.1953 18.7031 63.0156 18.3698 62.6562 18.1875C62.3021 18 61.7682 17.9062 61.0547 17.9062C60.7318 17.9062 60.3542 17.9661 59.9219 18.0859C59.4896 18.2005 59.0677 18.349 58.6562 18.5312H58.4219V16.4141C58.6927 16.3359 59.1302 16.2448 59.7344 16.1406C60.3385 16.0312 60.9479 15.9766 61.5625 15.9766C63.0729 15.9766 64.1719 16.2292 64.8594 16.7344C65.5521 17.2344 65.8984 18 65.8984 19.0312V25H63.1797V24.0703ZM77.7031 25H74.4531L72.0781 21.1797L71.6562 21.75V25H68.9219V12.8438H71.6562V19.6562L74.25 16.2266H77.4766L74.4062 20.0078L77.7031 25ZM82.2344 25.2422C81.5885 25.2422 80.9766 25.1719 80.3984 25.0312C79.8255 24.8906 79.3516 24.7266 78.9766 24.5391V22.2266H79.2031C79.3333 22.3255 79.4818 22.4349 79.6484 22.5547C79.8151 22.6745 80.0469 22.7995 80.3438 22.9297C80.599 23.0495 80.8854 23.1536 81.2031 23.2422C81.526 23.3255 81.875 23.3672 82.25 23.3672C82.6354 23.3672 82.974 23.3073 83.2656 23.1875C83.5625 23.0677 83.7109 22.8776 83.7109 22.6172C83.7109 22.4141 83.6432 22.2604 83.5078 22.1562C83.3724 22.0521 83.1094 21.9531 82.7188 21.8594C82.5104 21.8073 82.2474 21.7526 81.9297 21.6953C81.612 21.6328 81.3307 21.5625 81.0859 21.4844C80.3984 21.2708 79.8802 20.9557 79.5312 20.5391C79.1875 20.1172 79.0156 19.5651 79.0156 18.8828C79.0156 18.4922 79.1042 18.125 79.2812 17.7812C79.4635 17.4323 79.7292 17.1224 80.0781 16.8516C80.4271 16.5859 80.8568 16.375 81.3672 16.2188C81.8828 16.0625 82.4635 15.9844 83.1094 15.9844C83.724 15.9844 84.2891 16.0469 84.8047 16.1719C85.3203 16.2917 85.7552 16.4375 86.1094 16.6094V18.8281H85.8906C85.7969 18.7552 85.6484 18.6589 85.4453 18.5391C85.2422 18.4141 85.0443 18.3073 84.8516 18.2188C84.6224 18.1146 84.3646 18.0286 84.0781 17.9609C83.7969 17.8932 83.5078 17.8594 83.2109 17.8594C82.8151 17.8594 82.4792 17.9271 82.2031 18.0625C81.9323 18.1979 81.7969 18.3776 81.7969 18.6016C81.7969 18.7995 81.8646 18.9557 82 19.0703C82.1354 19.1849 82.4297 19.2969 82.8828 19.4062C83.1172 19.4635 83.3854 19.5208 83.6875 19.5781C83.9948 19.6302 84.2891 19.7031 84.5703 19.7969C85.2005 20 85.6771 20.2995 86 20.6953C86.3281 21.0859 86.4922 21.6068 86.4922 22.2578C86.4922 22.6693 86.3958 23.0625 86.2031 23.4375C86.0104 23.8073 85.737 24.1198 85.3828 24.375C85.0078 24.651 84.5651 24.8646 84.0547 25.0156C83.5495 25.1667 82.9427 25.2422 82.2344 25.2422ZM93.6328 22.7109V20.8828C93.1693 20.9297 92.7943 20.9714 92.5078 21.0078C92.2214 21.0391 91.9401 21.1042 91.6641 21.2031C91.4245 21.2865 91.237 21.4141 91.1016 21.5859C90.9714 21.7526 90.9062 21.9766 90.9062 22.2578C90.9062 22.6693 91.0156 22.9531 91.2344 23.1094C91.4583 23.2604 91.7865 23.3359 92.2188 23.3359C92.4583 23.3359 92.7031 23.2812 92.9531 23.1719C93.2031 23.0625 93.4297 22.9089 93.6328 22.7109ZM93.6328 24.0703C93.4453 24.2266 93.276 24.3672 93.125 24.4922C92.9792 24.6172 92.7812 24.7422 92.5312 24.8672C92.2865 24.987 92.0469 25.0781 91.8125 25.1406C91.5833 25.2031 91.2604 25.2344 90.8438 25.2344C90.0677 25.2344 89.4219 24.974 88.9062 24.4531C88.3958 23.9323 88.1406 23.276 88.1406 22.4844C88.1406 21.8333 88.2708 21.3073 88.5312 20.9062C88.7917 20.5052 89.1667 20.1875 89.6562 19.9531C90.151 19.7135 90.7422 19.5469 91.4297 19.4531C92.1172 19.3594 92.8568 19.2865 93.6484 19.2344V19.1875C93.6484 18.7031 93.4688 18.3698 93.1094 18.1875C92.7552 18 92.2214 17.9062 91.5078 17.9062C91.1849 17.9062 90.8073 17.9661 90.375 18.0859C89.9427 18.2005 89.5208 18.349 89.1094 18.5312H88.875V16.4141C89.1458 16.3359 89.5833 16.2448 90.1875 16.1406C90.7917 16.0312 91.401 15.9766 92.0156 15.9766C93.526 15.9766 94.625 16.2292 95.3125 16.7344C96.0052 17.2344 96.3516 18 96.3516 19.0312V25H93.6328V24.0703Z" fill="#003087"/>
<g clip-path="url(#clip0)">
<path d="M113.285 14H109.855C109.635 14 109.415 14.1768 109.371 14.3988L108.007 23.2552C107.963 23.432 108.096 23.5652 108.271 23.5652H109.899C110.118 23.5652 110.339 23.3884 110.382 23.1664L110.735 20.7753C110.779 20.5541 110.955 20.3765 111.218 20.3765H112.318C114.561 20.3765 115.881 19.2698 116.232 17.0991C116.364 16.1691 116.232 15.4159 115.792 14.8847C115.309 14.31 114.43 14 113.285 14ZM113.681 17.2331C113.506 18.473 112.538 18.473 111.659 18.473H111.131L111.483 16.1699C111.483 16.0367 111.615 15.9487 111.747 15.9487H111.967C112.582 15.9487 113.154 15.9487 113.462 16.3031C113.681 16.4799 113.77 16.7899 113.681 17.2331Z" fill="#003087"/>
<path d="M123.491 17.1886H121.863C121.731 17.1886 121.6 17.2774 121.6 17.4098L121.511 17.853L121.379 17.6762C121.027 17.145 120.236 16.9674 119.444 16.9674C117.64 16.9674 116.101 18.3406 115.793 20.2885C115.618 21.2628 115.837 22.1928 116.409 22.8128C116.892 23.3883 117.64 23.6539 118.476 23.6539C119.927 23.6539 120.763 22.724 120.763 22.724L120.675 23.1672C120.631 23.3439 120.763 23.5215 120.939 23.5215H122.434C122.654 23.5215 122.874 23.3448 122.918 23.1228L123.797 17.4542C123.842 17.3654 123.667 17.1886 123.491 17.1886ZM121.248 20.3773C121.072 21.3072 120.368 21.9716 119.4 21.9716C118.917 21.9716 118.565 21.8384 118.301 21.5284C118.037 21.2184 117.949 20.8196 118.037 20.3773C118.17 19.4473 118.961 18.7829 119.885 18.7829C120.368 18.7829 120.72 18.9597 120.984 19.2261C121.204 19.5353 121.292 19.9341 121.248 20.3773Z" fill="#003087"/>
<path d="M132.243 17.1887H130.615C130.44 17.1887 130.307 17.2775 130.219 17.4099L127.933 20.7753L126.965 17.5423C126.921 17.3211 126.701 17.1879 126.525 17.1879H124.897C124.722 17.1879 124.545 17.3646 124.633 17.5867L126.437 22.9452L124.722 25.3363C124.589 25.5131 124.722 25.7795 124.941 25.7795H126.569C126.744 25.7795 126.877 25.6907 126.965 25.5584L132.463 17.5875C132.595 17.4543 132.463 17.1887 132.243 17.1887Z" fill="#003087"/>
<path d="M137.697 14H134.267C134.047 14 133.826 14.1768 133.783 14.3988L132.419 23.2116C132.375 23.3884 132.508 23.5216 132.683 23.5216H134.442C134.618 23.5216 134.75 23.3884 134.75 23.256L135.146 20.7317C135.19 20.5106 135.366 20.333 135.63 20.333H136.729C138.972 20.333 140.292 19.2262 140.643 17.0555C140.775 16.1255 140.643 15.3723 140.203 14.8412C139.676 14.31 138.841 14 137.697 14ZM138.093 17.2331C137.917 18.473 136.949 18.473 136.07 18.473H135.542L135.894 16.1699C135.894 16.0367 136.026 15.9487 136.158 15.9487H136.378C136.993 15.9487 137.565 15.9487 137.873 16.3031C138.093 16.4799 138.137 16.7899 138.093 17.2331Z" fill="#009CDE"/>
<path d="M147.901 17.1886H146.274C146.141 17.1886 146.01 17.2774 146.01 17.4098L145.922 17.853L145.789 17.6762C145.437 17.145 144.646 16.9674 143.854 16.9674C142.051 16.9674 140.511 18.3406 140.204 20.2885C140.028 21.2628 140.248 22.1928 140.819 22.8128C141.303 23.3883 142.051 23.6539 142.886 23.6539C144.337 23.6539 145.174 22.724 145.174 22.724L145.085 23.1672C145.041 23.3439 145.174 23.5215 145.349 23.5215H146.844C147.064 23.5215 147.285 23.3448 147.328 23.1228L148.207 17.4542C148.209 17.3654 148.077 17.1886 147.901 17.1886ZM145.614 20.3773C145.438 21.3072 144.734 21.9716 143.767 21.9716C143.283 21.9716 142.931 21.8384 142.667 21.5284C142.404 21.2184 142.315 20.8196 142.404 20.3773C142.536 19.4473 143.327 18.7829 144.251 18.7829C144.734 18.7829 145.086 18.9597 145.35 19.2261C145.614 19.5353 145.702 19.9341 145.614 20.3773Z" fill="#009CDE"/>
<path d="M149.837 14.2212L148.43 23.2108C148.386 23.3876 148.518 23.5208 148.693 23.5208H150.101C150.32 23.5208 150.541 23.344 150.584 23.122L151.992 14.31C152.036 14.1332 151.904 14 151.728 14H150.145C149.968 14 149.881 14.0888 149.837 14.2212Z" fill="#009CDE"/>
</g>
</g>
<defs>
<filter id="filter0_d" x="0" y="0" width="195" height="47" filterUnits="userSpaceOnUse" color-interpolation-filters="sRGB">
<feFlood flood-opacity="0" result="BackgroundImageFix"/>
<feColorMatrix in="SourceAlpha" type="matrix" values="0 0 0 0 0 0 0 0 0 0 0 0 0 0 0 0 0 0 127 0"/>
<feOffset dy="4"/>
<feGaussianBlur stdDeviation="2"/>
<feColorMatrix type="matrix" values="0 0 0 0 0 0 0 0 0 0 0 0 0 0 0 0 0 0 0.05 0"/>
<feBlend mode="normal" in2="BackgroundImageFix" result="effect1_dropShadow"/>
<feBlend mode="normal" in="SourceGraphic" in2="effect1_dropShadow" result="shape"/>
</filter>
<clipPath id="clip0">
<rect width="44" height="11.7795" fill="white" transform="translate(108 14)"/>
</clipPath>
</defs>
</svg>
